<svg xmlns="http://www.w3.org/2000/svg" xmlns:xlink="http://www.w3.org/1999/xlink" width="500" zoomAndPan="magnify" viewBox="0 0 375 374.999991" height="500" preserveAspectRatio="xMidYMid meet" version="1.0"><defs><g/><clipPath id="e6ecc90780"><path d="M 126.980469 129.386719 L 172.730469 129.386719 L 172.730469 175.136719 L 126.980469 175.136719 Z M 126.980469 129.386719 " clip-rule="nonzero"/></clipPath><clipPath id="bb99d4e55b"><path d="M 191.25 129.386719 L 237 129.386719 L 237 175.136719 L 191.25 175.136719 Z M 191.25 129.386719 " clip-rule="nonzero"/></clipPath></defs><g clip-path="url(#e6ecc90780)"><path fill="#a6a6a6" d="M 172.71875 152.253906 C 172.71875 153.003906 172.679688 153.75 172.605469 154.496094 C 172.535156 155.242188 172.425781 155.980469 172.277344 156.714844 C 172.132812 157.449219 171.949219 158.175781 171.734375 158.890625 C 171.515625 159.609375 171.261719 160.3125 170.976562 161.003906 C 170.691406 161.699219 170.371094 162.375 170.015625 163.035156 C 169.664062 163.695312 169.277344 164.335938 168.863281 164.960938 C 168.445312 165.582031 168 166.183594 167.527344 166.761719 C 167.050781 167.339844 166.546875 167.894531 166.019531 168.425781 C 165.488281 168.953125 164.933594 169.457031 164.355469 169.933594 C 163.777344 170.40625 163.175781 170.851562 162.554688 171.269531 C 161.929688 171.683594 161.289062 172.070312 160.628906 172.421875 C 159.96875 172.777344 159.292969 173.09375 158.601562 173.382812 C 157.90625 173.667969 157.203125 173.921875 156.488281 174.136719 C 155.769531 174.355469 155.042969 174.539062 154.308594 174.683594 C 153.574219 174.828125 152.835938 174.9375 152.089844 175.011719 C 151.34375 175.085938 150.597656 175.121094 149.847656 175.121094 C 149.097656 175.121094 148.351562 175.085938 147.605469 175.011719 C 146.863281 174.9375 146.121094 174.828125 145.386719 174.683594 C 144.652344 174.539062 143.925781 174.355469 143.210938 174.136719 C 142.492188 173.921875 141.789062 173.667969 141.097656 173.382812 C 140.40625 173.09375 139.730469 172.777344 139.066406 172.421875 C 138.40625 172.070312 137.765625 171.683594 137.144531 171.269531 C 136.519531 170.851562 135.917969 170.40625 135.339844 169.933594 C 134.761719 169.457031 134.207031 168.953125 133.679688 168.425781 C 133.148438 167.894531 132.644531 167.339844 132.171875 166.761719 C 131.695312 166.183594 131.25 165.582031 130.832031 164.960938 C 130.417969 164.335938 130.03125 163.695312 129.679688 163.035156 C 129.328125 162.375 129.007812 161.699219 128.71875 161.003906 C 128.433594 160.3125 128.183594 159.609375 127.964844 158.890625 C 127.746094 158.175781 127.566406 157.449219 127.417969 156.714844 C 127.273438 155.980469 127.164062 155.242188 127.089844 154.496094 C 127.015625 153.75 126.980469 153.003906 126.980469 152.253906 C 126.980469 151.503906 127.015625 150.757812 127.089844 150.011719 C 127.164062 149.265625 127.273438 148.527344 127.417969 147.792969 C 127.566406 147.058594 127.746094 146.332031 127.964844 145.617188 C 128.183594 144.898438 128.433594 144.195312 128.71875 143.503906 C 129.007812 142.808594 129.328125 142.132812 129.679688 141.472656 C 130.03125 140.8125 130.417969 140.171875 130.832031 139.546875 C 131.25 138.925781 131.695312 138.324219 132.171875 137.746094 C 132.644531 137.167969 133.148438 136.613281 133.679688 136.082031 C 134.207031 135.554688 134.761719 135.050781 135.339844 134.578125 C 135.917969 134.101562 136.519531 133.65625 137.144531 133.238281 C 137.765625 132.824219 138.40625 132.4375 139.066406 132.085938 C 139.730469 131.734375 140.40625 131.414062 141.097656 131.125 C 141.789062 130.839844 142.492188 130.585938 143.210938 130.371094 C 143.925781 130.152344 144.652344 129.972656 145.386719 129.824219 C 146.121094 129.679688 146.863281 129.570312 147.605469 129.496094 C 148.351562 129.421875 149.097656 129.386719 149.847656 129.386719 C 150.597656 129.386719 151.34375 129.421875 152.089844 129.496094 C 152.835938 129.570312 153.574219 129.679688 154.308594 129.824219 C 155.042969 129.972656 155.769531 130.152344 156.488281 130.371094 C 157.203125 130.585938 157.90625 130.839844 158.601562 131.125 C 159.292969 131.414062 159.96875 131.734375 160.628906 132.085938 C 161.289062 132.4375 161.929688 132.824219 162.554688 133.238281 C 163.175781 133.65625 163.777344 134.101562 164.355469 134.578125 C 164.933594 135.050781 165.488281 135.554688 166.019531 136.082031 C 166.546875 136.613281 167.050781 137.167969 167.527344 137.746094 C 168 138.324219 168.445312 138.925781 168.863281 139.546875 C 169.277344 140.171875 169.664062 140.8125 170.015625 141.472656 C 170.371094 142.132812 170.691406 142.808594 170.976562 143.503906 C 171.261719 144.195312 171.515625 144.898438 171.734375 145.617188 C 171.949219 146.332031 172.132812 147.058594 172.277344 147.792969 C 172.425781 148.527344 172.535156 149.265625 172.605469 150.011719 C 172.679688 150.757812 172.71875 151.503906 172.71875 152.253906 Z M 172.71875 152.253906 " fill-opacity="1" fill-rule="nonzero"/></g><g clip-path="url(#bb99d4e55b)"><path fill="#737373" d="M 236.988281 152.253906 C 236.988281 153.003906 236.949219 153.75 236.878906 154.496094 C 236.804688 155.242188 236.695312 155.980469 236.546875 156.714844 C 236.402344 157.449219 236.21875 158.175781 236.003906 158.890625 C 235.785156 159.609375 235.535156 160.3125 235.246094 161.003906 C 234.960938 161.699219 234.640625 162.375 234.289062 163.035156 C 233.933594 163.695312 233.550781 164.335938 233.132812 164.960938 C 232.71875 165.582031 232.273438 166.183594 231.796875 166.761719 C 231.320312 167.339844 230.820312 167.894531 230.289062 168.425781 C 229.761719 168.953125 229.207031 169.457031 228.625 169.933594 C 228.046875 170.40625 227.445312 170.851562 226.824219 171.269531 C 226.203125 171.683594 225.558594 172.070312 224.898438 172.421875 C 224.238281 172.777344 223.5625 173.09375 222.871094 173.382812 C 222.179688 173.667969 221.472656 173.921875 220.757812 174.136719 C 220.039062 174.355469 219.316406 174.539062 218.582031 174.683594 C 217.84375 174.828125 217.105469 174.9375 216.359375 175.011719 C 215.613281 175.085938 214.867188 175.121094 214.117188 175.121094 C 213.371094 175.121094 212.621094 175.085938 211.878906 175.011719 C 211.132812 174.9375 210.390625 174.828125 209.65625 174.683594 C 208.921875 174.539062 208.195312 174.355469 207.480469 174.136719 C 206.761719 173.921875 206.058594 173.667969 205.367188 173.382812 C 204.675781 173.09375 204 172.777344 203.339844 172.421875 C 202.679688 172.070312 202.035156 171.683594 201.414062 171.269531 C 200.789062 170.851562 200.191406 170.40625 199.609375 169.933594 C 199.03125 169.457031 198.476562 168.953125 197.949219 168.425781 C 197.417969 167.894531 196.917969 167.339844 196.441406 166.761719 C 195.964844 166.183594 195.519531 165.582031 195.105469 164.960938 C 194.6875 164.335938 194.304688 163.695312 193.949219 163.035156 C 193.597656 162.375 193.277344 161.699219 192.992188 161.003906 C 192.703125 160.3125 192.453125 159.609375 192.234375 158.890625 C 192.015625 158.175781 191.835938 157.449219 191.6875 156.714844 C 191.542969 155.980469 191.433594 155.242188 191.359375 154.496094 C 191.285156 153.75 191.25 153.003906 191.25 152.253906 C 191.25 151.503906 191.285156 150.757812 191.359375 150.011719 C 191.433594 149.265625 191.542969 148.527344 191.6875 147.792969 C 191.835938 147.058594 192.015625 146.332031 192.234375 145.617188 C 192.453125 144.898438 192.703125 144.195312 192.992188 143.503906 C 193.277344 142.808594 193.597656 142.132812 193.949219 141.472656 C 194.304688 140.8125 194.6875 140.171875 195.105469 139.546875 C 195.519531 138.925781 195.964844 138.324219 196.441406 137.746094 C 196.917969 137.167969 197.417969 136.613281 197.949219 136.082031 C 198.476562 135.554688 199.03125 135.050781 199.609375 134.578125 C 200.191406 134.101562 200.789062 133.65625 201.414062 133.238281 C 202.035156 132.824219 202.679688 132.4375 203.339844 132.085938 C 204 131.734375 204.675781 131.414062 205.367188 131.125 C 206.058594 130.839844 206.761719 130.585938 207.480469 130.371094 C 208.195312 130.152344 208.921875 129.972656 209.65625 129.824219 C 210.390625 129.679688 211.132812 129.570312 211.878906 129.496094 C 212.621094 129.421875 213.371094 129.386719 214.117188 129.386719 C 214.867188 129.386719 215.613281 129.421875 216.359375 129.496094 C 217.105469 129.570312 217.84375 129.679688 218.582031 129.824219 C 219.316406 129.972656 220.039062 130.152344 220.757812 130.371094 C 221.472656 130.585938 222.179688 130.839844 222.871094 131.125 C 223.5625 131.414062 224.238281 131.734375 224.898438 132.085938 C 225.558594 132.4375 226.203125 132.824219 226.824219 133.238281 C 227.445312 133.65625 228.046875 134.101562 228.625 134.578125 C 229.207031 135.050781 229.761719 135.554688 230.289062 136.082031 C 230.820312 136.613281 231.320312 137.167969 231.796875 137.746094 C 232.273438 138.324219 232.71875 138.925781 233.132812 139.546875 C 233.550781 140.171875 233.933594 140.8125 234.289062 141.472656 C 234.640625 142.132812 234.960938 142.808594 235.246094 143.503906 C 235.535156 144.195312 235.785156 144.898438 236.003906 145.617188 C 236.21875 146.332031 236.402344 147.058594 236.546875 147.792969 C 236.695312 148.527344 236.804688 149.265625 236.878906 150.011719 C 236.949219 150.757812 236.988281 151.503906 236.988281 152.253906 Z M 236.988281 152.253906 " fill-opacity="1" fill-rule="nonzero"/></g><g fill="#737373" fill-opacity="1"><g transform="translate(122.186701, 205.877461)"><g><path d="M 1.984375 0 L 1.984375 -15.703125 L 5.3125 -15.703125 L 5.3125 -2.75 L 11.671875 -2.75 L 11.671875 0 Z M 1.984375 0 "/></g></g></g><g fill="#737373" fill-opacity="1"><g transform="translate(134.61321, 205.877461)"><g><path d="M 6.6875 -9.90625 C 6 -9.90625 5.457031 -9.679688 5.0625 -9.234375 C 4.664062 -8.796875 4.441406 -8.175781 4.390625 -7.375 L 8.984375 -7.375 C 8.960938 -8.175781 8.75 -8.796875 8.34375 -9.234375 C 7.9375 -9.679688 7.382812 -9.90625 6.6875 -9.90625 Z M 7.15625 0.21875 C 5.21875 0.21875 3.703125 -0.3125 2.609375 -1.375 C 1.523438 -2.445312 0.984375 -3.960938 0.984375 -5.921875 C 0.984375 -7.929688 1.484375 -9.484375 2.484375 -10.578125 C 3.492188 -11.679688 4.890625 -12.234375 6.671875 -12.234375 C 8.367188 -12.234375 9.6875 -11.75 10.625 -10.78125 C 11.570312 -9.8125 12.046875 -8.476562 12.046875 -6.78125 L 12.046875 -5.1875 L 4.3125 -5.1875 C 4.34375 -4.257812 4.613281 -3.53125 5.125 -3 C 5.644531 -2.476562 6.375 -2.21875 7.3125 -2.21875 C 8.03125 -2.21875 8.710938 -2.289062 9.359375 -2.4375 C 10.003906 -2.59375 10.675781 -2.835938 11.375 -3.171875 L 11.375 -0.640625 C 10.800781 -0.347656 10.1875 -0.132812 9.53125 0 C 8.882812 0.144531 8.09375 0.21875 7.15625 0.21875 Z M 7.15625 0.21875 "/></g></g></g><g fill="#737373" fill-opacity="1"><g transform="translate(147.608948, 205.877461)"><g><path d="M 12.8125 0 L 9.53125 0 L 9.53125 -7.015625 C 9.53125 -7.878906 9.375 -8.523438 9.0625 -8.953125 C 8.757812 -9.390625 8.269531 -9.609375 7.59375 -9.609375 C 6.675781 -9.609375 6.015625 -9.300781 5.609375 -8.6875 C 5.203125 -8.082031 5 -7.070312 5 -5.65625 L 5 0 L 1.71875 0 L 1.71875 -12.015625 L 4.21875 -12.015625 L 4.65625 -10.46875 L 4.84375 -10.46875 C 5.207031 -11.050781 5.707031 -11.488281 6.34375 -11.78125 C 6.988281 -12.082031 7.722656 -12.234375 8.546875 -12.234375 C 9.941406 -12.234375 11 -11.851562 11.71875 -11.09375 C 12.445312 -10.34375 12.8125 -9.253906 12.8125 -7.828125 Z M 12.8125 0 "/></g></g></g><g fill="#737373" fill-opacity="1"><g transform="translate(162.065364, 205.877461)"><g><path d="M 10.09375 -3.5625 C 10.09375 -2.332031 9.664062 -1.394531 8.8125 -0.75 C 7.957031 -0.101562 6.675781 0.21875 4.96875 0.21875 C 4.09375 0.21875 3.347656 0.15625 2.734375 0.03125 C 2.117188 -0.0820312 1.546875 -0.253906 1.015625 -0.484375 L 1.015625 -3.1875 C 1.617188 -2.90625 2.300781 -2.664062 3.0625 -2.46875 C 3.832031 -2.28125 4.503906 -2.1875 5.078125 -2.1875 C 6.265625 -2.1875 6.859375 -2.53125 6.859375 -3.21875 C 6.859375 -3.46875 6.78125 -3.671875 6.625 -3.828125 C 6.46875 -3.992188 6.195312 -4.175781 5.8125 -4.375 C 5.425781 -4.582031 4.910156 -4.828125 4.265625 -5.109375 C 3.335938 -5.492188 2.65625 -5.847656 2.21875 -6.171875 C 1.789062 -6.503906 1.476562 -6.882812 1.28125 -7.3125 C 1.082031 -7.738281 0.984375 -8.265625 0.984375 -8.890625 C 0.984375 -9.953125 1.394531 -10.773438 2.21875 -11.359375 C 3.050781 -11.941406 4.226562 -12.234375 5.75 -12.234375 C 7.195312 -12.234375 8.601562 -11.921875 9.96875 -11.296875 L 8.984375 -8.921875 C 8.378906 -9.179688 7.816406 -9.394531 7.296875 -9.5625 C 6.773438 -9.726562 6.238281 -9.8125 5.6875 -9.8125 C 4.726562 -9.8125 4.25 -9.550781 4.25 -9.03125 C 4.25 -8.726562 4.398438 -8.46875 4.703125 -8.25 C 5.015625 -8.039062 5.695312 -7.726562 6.75 -7.3125 C 7.695312 -6.925781 8.382812 -6.566406 8.8125 -6.234375 C 9.25 -5.910156 9.570312 -5.53125 9.78125 -5.09375 C 9.988281 -4.664062 10.09375 -4.15625 10.09375 -3.5625 Z M 10.09375 -3.5625 "/></g></g></g><g fill="#a6a6a6" fill-opacity="1"><g transform="translate(176.638573, 205.877461)"><g><path d="M 1.984375 0 L 1.984375 -15.703125 L 5.3125 -15.703125 L 5.3125 -2.75 L 11.671875 -2.75 L 11.671875 0 Z M 1.984375 0 "/></g></g></g><g fill="#a6a6a6" fill-opacity="1"><g transform="translate(189.065082, 205.877461)"><g><path d="M 6.6875 -9.90625 C 6 -9.90625 5.457031 -9.679688 5.0625 -9.234375 C 4.664062 -8.796875 4.441406 -8.175781 4.390625 -7.375 L 8.984375 -7.375 C 8.960938 -8.175781 8.75 -8.796875 8.34375 -9.234375 C 7.9375 -9.679688 7.382812 -9.90625 6.6875 -9.90625 Z M 7.15625 0.21875 C 5.21875 0.21875 3.703125 -0.3125 2.609375 -1.375 C 1.523438 -2.445312 0.984375 -3.960938 0.984375 -5.921875 C 0.984375 -7.929688 1.484375 -9.484375 2.484375 -10.578125 C 3.492188 -11.679688 4.890625 -12.234375 6.671875 -12.234375 C 8.367188 -12.234375 9.6875 -11.75 10.625 -10.78125 C 11.570312 -9.8125 12.046875 -8.476562 12.046875 -6.78125 L 12.046875 -5.1875 L 4.3125 -5.1875 C 4.34375 -4.257812 4.613281 -3.53125 5.125 -3 C 5.644531 -2.476562 6.375 -2.21875 7.3125 -2.21875 C 8.03125 -2.21875 8.710938 -2.289062 9.359375 -2.4375 C 10.003906 -2.59375 10.675781 -2.835938 11.375 -3.171875 L 11.375 -0.640625 C 10.800781 -0.347656 10.1875 -0.132812 9.53125 0 C 8.882812 0.144531 8.09375 0.21875 7.15625 0.21875 Z M 7.15625 0.21875 "/></g></g></g><g fill="#a6a6a6" fill-opacity="1"><g transform="translate(202.06082, 205.877461)"><g><path d="M 12.171875 -12.015625 L 12.171875 -10.34375 L 10.296875 -9.859375 C 10.640625 -9.328125 10.8125 -8.726562 10.8125 -8.0625 C 10.8125 -6.769531 10.359375 -5.765625 9.453125 -5.046875 C 8.554688 -4.328125 7.3125 -3.96875 5.71875 -3.96875 L 5.125 -4 L 4.640625 -4.046875 C 4.304688 -3.785156 4.140625 -3.5 4.140625 -3.1875 C 4.140625 -2.71875 4.738281 -2.484375 5.9375 -2.484375 L 7.984375 -2.484375 C 9.296875 -2.484375 10.296875 -2.195312 10.984375 -1.625 C 11.679688 -1.0625 12.03125 -0.234375 12.03125 0.859375 C 12.03125 2.265625 11.441406 3.351562 10.265625 4.125 C 9.097656 4.894531 7.421875 5.28125 5.234375 5.28125 C 3.554688 5.28125 2.273438 4.988281 1.390625 4.40625 C 0.503906 3.820312 0.0625 3.003906 0.0625 1.953125 C 0.0625 1.234375 0.285156 0.628906 0.734375 0.140625 C 1.191406 -0.347656 1.859375 -0.695312 2.734375 -0.90625 C 2.390625 -1.050781 2.09375 -1.285156 1.84375 -1.609375 C 1.59375 -1.929688 1.46875 -2.273438 1.46875 -2.640625 C 1.46875 -3.097656 1.597656 -3.476562 1.859375 -3.78125 C 2.128906 -4.09375 2.515625 -4.394531 3.015625 -4.6875 C 2.390625 -4.957031 1.890625 -5.390625 1.515625 -5.984375 C 1.148438 -6.585938 0.96875 -7.300781 0.96875 -8.125 C 0.96875 -9.4375 1.394531 -10.445312 2.25 -11.15625 C 3.101562 -11.875 4.316406 -12.234375 5.890625 -12.234375 C 6.234375 -12.234375 6.632812 -12.203125 7.09375 -12.140625 C 7.550781 -12.078125 7.847656 -12.035156 7.984375 -12.015625 Z M 2.90625 1.703125 C 2.90625 2.148438 3.117188 2.5 3.546875 2.75 C 3.984375 3.007812 4.59375 3.140625 5.375 3.140625 C 6.550781 3.140625 7.46875 2.976562 8.125 2.65625 C 8.789062 2.34375 9.125 1.90625 9.125 1.34375 C 9.125 0.894531 8.925781 0.582031 8.53125 0.40625 C 8.144531 0.238281 7.539062 0.15625 6.71875 0.15625 L 5.015625 0.15625 C 4.410156 0.15625 3.90625 0.296875 3.5 0.578125 C 3.101562 0.859375 2.90625 1.234375 2.90625 1.703125 Z M 4.09375 -8.078125 C 4.09375 -7.421875 4.238281 -6.90625 4.53125 -6.53125 C 4.832031 -6.15625 5.285156 -5.96875 5.890625 -5.96875 C 6.515625 -5.96875 6.96875 -6.15625 7.25 -6.53125 C 7.539062 -6.90625 7.6875 -7.421875 7.6875 -8.078125 C 7.6875 -9.523438 7.085938 -10.25 5.890625 -10.25 C 4.691406 -10.25 4.09375 -9.523438 4.09375 -8.078125 Z M 4.09375 -8.078125 "/></g></g></g><g fill="#a6a6a6" fill-opacity="1"><g transform="translate(214.487329, 205.877461)"><g><path d="M 9.34375 0 L 8.71875 -1.640625 L 8.625 -1.640625 C 8.070312 -0.941406 7.503906 -0.457031 6.921875 -0.1875 C 6.335938 0.0820312 5.578125 0.21875 4.640625 0.21875 C 3.484375 0.21875 2.570312 -0.109375 1.90625 -0.765625 C 1.25 -1.429688 0.921875 -2.375 0.921875 -3.59375 C 0.921875 -4.863281 1.363281 -5.800781 2.25 -6.40625 C 3.144531 -7.007812 4.492188 -7.34375 6.296875 -7.40625 L 8.375 -7.484375 L 8.375 -8 C 8.375 -9.21875 7.753906 -9.828125 6.515625 -9.828125 C 5.554688 -9.828125 4.425781 -9.535156 3.125 -8.953125 L 2.046875 -11.171875 C 3.421875 -11.890625 4.953125 -12.25 6.640625 -12.25 C 8.253906 -12.25 9.488281 -11.898438 10.34375 -11.203125 C 11.207031 -10.503906 11.640625 -9.4375 11.640625 -8 L 11.640625 0 Z M 8.375 -5.5625 L 7.109375 -5.515625 C 6.160156 -5.492188 5.453125 -5.320312 4.984375 -5 C 4.515625 -4.6875 4.28125 -4.207031 4.28125 -3.5625 C 4.28125 -2.644531 4.8125 -2.1875 5.875 -2.1875 C 6.632812 -2.1875 7.238281 -2.398438 7.6875 -2.828125 C 8.144531 -3.265625 8.375 -3.847656 8.375 -4.578125 Z M 8.375 -5.5625 "/></g></g></g><g fill="#a6a6a6" fill-opacity="1"><g transform="translate(227.773061, 205.877461)"><g><path d="M 6.59375 0.21875 C 2.851562 0.21875 0.984375 -1.832031 0.984375 -5.9375 C 0.984375 -7.976562 1.492188 -9.535156 2.515625 -10.609375 C 3.535156 -11.691406 4.992188 -12.234375 6.890625 -12.234375 C 8.273438 -12.234375 9.519531 -11.960938 10.625 -11.421875 L 9.65625 -8.890625 C 9.144531 -9.097656 8.664062 -9.265625 8.21875 -9.390625 C 7.769531 -9.523438 7.328125 -9.59375 6.890625 -9.59375 C 5.179688 -9.59375 4.328125 -8.382812 4.328125 -5.96875 C 4.328125 -3.613281 5.179688 -2.4375 6.890625 -2.4375 C 7.515625 -2.4375 8.09375 -2.519531 8.625 -2.6875 C 9.164062 -2.851562 9.707031 -3.117188 10.25 -3.484375 L 10.25 -0.671875 C 9.71875 -0.335938 9.179688 -0.109375 8.640625 0.015625 C 8.097656 0.148438 7.414062 0.21875 6.59375 0.21875 Z M 6.59375 0.21875 "/></g></g></g><g fill="#a6a6a6" fill-opacity="1"><g transform="translate(239.082581, 205.877461)"><g><path d="M 0 -12.015625 L 3.59375 -12.015625 L 5.859375 -5.25 C 6.046875 -4.664062 6.175781 -3.972656 6.25 -3.171875 L 6.3125 -3.171875 C 6.394531 -3.910156 6.550781 -4.601562 6.78125 -5.25 L 9 -12.015625 L 12.515625 -12.015625 L 7.4375 1.53125 C 6.96875 2.789062 6.300781 3.726562 5.4375 4.34375 C 4.570312 4.96875 3.566406 5.28125 2.421875 5.28125 C 1.847656 5.28125 1.289062 5.222656 0.75 5.109375 L 0.75 2.5 C 1.144531 2.59375 1.578125 2.640625 2.046875 2.640625 C 2.617188 2.640625 3.125 2.460938 3.5625 2.109375 C 4 1.753906 4.335938 1.21875 4.578125 0.5 L 4.765625 -0.09375 Z M 0 -12.015625 "/></g></g></g></svg>